<svg width="33" height="33" viewBox="0 0 33 33" fill="none" xmlns="http://www.w3.org/2000/svg">
<g clip-path="url(#clip0)">
<path d="M28.9714 3.94321H4.03538C1.80944 3.94321 0 5.75264 0 7.97859V25.0214C0 27.2474 1.80944 29.0568 4.03538 29.0568H28.9646C31.1906 29.0568 33 27.2474 33 25.0214V7.98542C33.0068 5.75947 31.1974 3.94321 28.9714 3.94321ZM31.1633 25.0214C31.1633 26.23 30.18 27.2132 28.9714 27.2132H4.03538C2.82682 27.2132 1.84358 26.23 1.84358 25.0214V7.98542C1.84358 6.77685 2.82682 5.79361 4.03538 5.79361H28.9646C30.1732 5.79361 31.1564 6.77685 31.1564 7.98542V25.0214H31.1633Z" fill="black"/>
<path d="M20.8118 16.2883L28.8825 9.05059C29.2581 8.70918 29.2922 8.1288 28.9508 7.74643C28.6094 7.37088 28.029 7.33674 27.6466 7.67815L16.5169 17.6676L14.3456 15.7284C14.3388 15.7216 14.3319 15.7148 14.3319 15.7079C14.2841 15.6601 14.2363 15.6192 14.1817 15.5782L5.3462 7.67132C4.96383 7.32992 4.38345 7.36406 4.04205 7.74643C3.70064 8.1288 3.73478 8.70918 4.11715 9.05059L12.2835 16.3498L4.15129 23.9631C3.78258 24.3113 3.7621 24.8917 4.11033 25.2672C4.29468 25.4584 4.54049 25.5608 4.7863 25.5608C5.01163 25.5608 5.23696 25.4789 5.41449 25.315L13.6696 17.5925L15.9092 19.5931C16.0867 19.7502 16.3052 19.8253 16.5237 19.8253C16.7422 19.8253 16.9676 19.7433 17.1383 19.5863L19.4393 17.5242L27.6466 25.3218C27.8242 25.4925 28.0563 25.5745 28.2816 25.5745C28.5275 25.5745 28.7664 25.4789 28.9508 25.2877C29.299 24.919 29.2854 24.3318 28.9167 23.9835L20.8118 16.2883Z" fill="black"/>
</g>
<defs>
<clipPath id="clip0">
<rect width="33" height="33" fill="white"/>
</clipPath>
</defs>
</svg>
